<svg xmlns="http://www.w3.org/2000/svg" width="103" height="39" fill="none"><path d="M.5.5h101.704v37.181H.5z"/><path d="M.5.5h101.704v37.181H.5z"/><path fill="#030A06" d="M16.69 0c-.203 0-.417 0-.618.024-2.333.195-4.477 1.186-6.004 2.992C8.406 4.98 8.004 7.05 8.024 9.552l-4.445-.006c-.2 0-.405-.006-.614-.012-.58-.016-1.182-.033-1.725.067-.328.06-.614.22-.844.46-.404.419-.414.95-.387 1.493.04.857.115 1.715.188 2.572.04.466.08.932.115 1.398l.738 9.533.359 4.604c.017.227.031.456.046.687.05.824.102 1.66.32 2.448a7.388 7.388 0 0 0 5.313 5.181c.996.24 2.153.213 3.24.188.325-.008.642-.015.947-.016l5.984-.002 5.226.003c.286 0 .58.007.878.014.965.023 1.971.047 2.873-.164 1.27-.295 2.553-.992 3.48-1.91.862-.856 1.55-1.997 1.852-3.177.23-.903.288-1.893.344-2.853.018-.31.036-.616.06-.916l.49-6.314.612-7.752c.03-.383.068-.77.106-1.158.083-.84.167-1.687.165-2.518-.001-.511-.11-.988-.475-1.367-.252-.262-.664-.39-1.013-.446-.522-.085-1.095-.07-1.65-.055-.204.005-.407.01-.603.01-1.398-.002-2.796.003-4.194.015l-.06.001c.032-2.679-.564-4.978-2.49-6.937A8.584 8.584 0 0 0 16.72 0h-.03Zm8.472 15.28.076.005.005.014a.327.327 0 0 1 .012.028l.003.007c.014.031.016.037.016.088-.024 3.284-.904 7.514-3.235 9.92-2.159 2.227-5.512 3.32-8.569 3.381 1.424-2.678 3.713-5.218 6.073-7.105.365-.291.747-.555 1.13-.819.246-.17.492-.34.734-.517.235-.172.551-.406.584-.72.03-.29-.123-.514-.304-.721-.254-.147-.44-.209-.73-.123-.411.12-.826.425-1.2.7-.1.072-.196.143-.289.208a25.143 25.143 0 0 0-7.364 8.159c-.062-2.628.537-4.829 2.148-6.942 2.418-3.172 7.047-5.036 10.91-5.562ZM1.667 11.192h30.028a81.976 81.976 0 0 0-.244 3.05c-.038.568-.077 1.136-.122 1.701l-.808 10.132-.303 3.734a62 62 0 0 0-.038.488c-.048.645-.097 1.294-.221 1.925-.128.647-.376 1.21-.711 1.775-.13.196-.27.385-.421.566-.87 1.04-2.3 1.815-3.657 1.917-.739.056-1.5.042-2.253.028-.326-.006-.65-.012-.972-.012l-6.23-.002-4.957.003c-.24 0-.483.005-.728.01-.752.015-1.522.031-2.244-.093a5.356 5.356 0 0 1-2.564-1.21 5.6 5.6 0 0 1-1.8-2.83c-.202-.733-.253-1.513-.302-2.28a44.848 44.848 0 0 0-.04-.574l-.295-3.799-1.118-14.529Zm24.162 2.33-.022.002c-4.559.527-9.748 2.402-12.694 6.094-1.894 2.373-2.929 5.46-2.587 8.5a9.04 9.04 0 0 0 .444 1.94l-.089.224c-.374.94-1.243 3.126-.941 3.772a.743.743 0 0 0 .459.374c.08.025.16.04.242.049.256-.042.492-.095.646-.323.165-.246.334-.836.478-1.341.07-.24.132-.462.187-.617.188-.532.4-1.055.613-1.578l.002-.006.075-.184c3.758.012 7.773-1.165 10.492-3.848 3.041-3.001 3.807-7.84 3.813-11.936 0-.323-.022-.706-.258-.953-.145-.152-.364-.197-.567-.193a3.523 3.523 0 0 0-.293.023ZM16.324 1.641a6.37 6.37 0 0 1 .438-.016c1.785.013 3.573.811 4.828 2.07 1.708 1.713 2.057 3.531 2.061 5.857l-6.542-.004-7.36.01c-.057-2 .265-3.826 1.576-5.404 1.26-1.516 3.058-2.34 5-2.513Z"/><path fill="#030A06" d="m25.238 15.285-.076-.004c-3.863.526-8.492 2.39-10.91 5.562-1.611 2.113-2.21 4.314-2.148 6.942a25.143 25.143 0 0 1 7.364-8.16c.093-.064.19-.135.289-.207.374-.275.789-.58 1.2-.7.29-.085.476-.024.73.123.18.207.335.431.304.72-.033.315-.35.549-.584.721-.242.178-.488.348-.734.517-.383.264-.765.527-1.13.819-2.36 1.887-4.649 4.427-6.073 7.105 3.057-.06 6.41-1.154 8.569-3.381 2.331-2.406 3.21-6.636 3.235-9.92 0-.05-.002-.057-.016-.088a1.262 1.262 0 0 1-.02-.049Zm.569-1.762.022-.003c.098-.01.195-.02.293-.023.203-.004.422.041.567.193.236.247.259.63.258.953-.006 4.096-.772 8.935-3.813 11.936-2.72 2.683-6.734 3.86-10.492 3.848l-.075.184-.002.006a35.579 35.579 0 0 0-.613 1.578c-.055.155-.118.376-.187.617-.144.505-.313 1.095-.478 1.34-.154.229-.39.282-.646.324a1.31 1.31 0 0 1-.242-.05.743.743 0 0 1-.459-.373c-.302-.646.567-2.831.941-3.772l.09-.224a9.04 9.04 0 0 1-.445-1.94c-.342-3.04.693-6.127 2.587-8.5 2.946-3.692 8.135-5.567 12.694-6.095Z"/><path fill="#030A06" d="m25.83 13.52-.023.003c-4.558.527-9.748 2.402-12.694 6.094-1.894 2.373-2.928 5.46-2.587 8.5.075.667.226 1.305.444 1.94l-.089.224c-.374.94-1.243 3.126-.94 3.772a.743.743 0 0 0 .458.374c.08.025.16.04.243.049.255-.042.491-.095.645-.323.165-.246.334-.836.478-1.34.07-.241.133-.463.187-.618.188-.532.4-1.055.613-1.578l.002-.006.075-.184c3.758.012 7.773-1.165 10.492-3.848 3.041-3.001 3.807-7.84 3.813-11.936 0-.323-.021-.706-.258-.953-.145-.152-.363-.197-.566-.193a3.52 3.52 0 0 0-.294.023Zm-.668 1.76.076.005.008.021.012.028c.014.031.017.037.016.088-.024 3.284-.904 7.514-3.235 9.92-2.159 2.227-5.511 3.32-8.569 3.381 1.424-2.678 3.713-5.218 6.073-7.105.365-.291.747-.555 1.13-.819.246-.17.492-.34.734-.517.235-.172.551-.406.584-.72.031-.29-.123-.514-.304-.721-.254-.147-.44-.209-.73-.123-.411.12-.826.425-1.2.7-.1.072-.196.143-.288.208a25.142 25.142 0 0 0-7.365 8.159c-.061-2.628.537-4.829 2.148-6.942 2.418-3.172 7.047-5.036 10.91-5.562ZM84.522 24.652a5.85 5.85 0 1 0-11.693.412 5.85 5.85 0 0 0 11.693-.412Zm-5.849-3.885c.942.038 1.706.265 2.424.9.855.758 1.332 1.852 1.395 2.985.063 1.134-.294 2.284-1.066 3.129-.706.772-1.586 1.117-2.617 1.169-.94-.01-1.717-.156-2.46-.774-.866-.72-1.356-1.788-1.449-2.903-.095-1.158.208-2.356.977-3.244.763-.881 1.664-1.184 2.796-1.262ZM68.263 24.168a5.847 5.847 0 1 0-11.61 1.39 5.847 5.847 0 0 0 11.61-1.39Zm-6.324-3.354c.936-.076 1.785.023 2.576.567.888.61 1.446 1.554 1.631 2.608.21 1.196.013 2.476-.707 3.473-.63.873-1.418 1.306-2.467 1.473-.959.05-1.805-.009-2.612-.58a3.956 3.956 0 0 1-1.627-2.602c-.196-1.16.039-2.494.73-3.459.61-.847 1.458-1.317 2.476-1.48ZM96.786 19.005a.957.957 0 0 0-.086.006c-1.473.174-2.799.887-3.725 2.056-1.056 1.334-1.419 3.026-1.21 4.699a5.54 5.54 0 0 0 2.088 3.722c1.38 1.072 3.13 1.345 4.835 1.111.987-.135 2.47-.607 3.1-1.428.178-.23.267-.512.226-.803a.775.775 0 0 0-.286-.525c-.194-.144-.452-.162-.681-.118-.319.063-.605.26-.877.447l-.169.116c-1.191.619-2.512.91-3.822.485a3.653 3.653 0 0 1-2.136-1.857c-.225-.45-.338-.928-.438-1.419h5.62c.234 0 .485.009.743.017.667.021 1.38.044 1.968-.061a.883.883 0 0 0 .45-.238c.276-.27.325-.65.317-1.018-.032-1.409-.693-2.798-1.717-3.75-1.183-1.1-2.61-1.514-4.2-1.442Zm.173 1.759c.853-.1 1.714.118 2.417.612.84.598 1.281 1.445 1.458 2.444-.712.008-1.426.006-2.139.004-.356 0-.713-.002-1.069-.001l-3.953.005c.181-.608.391-1.16.78-1.67.627-.821 1.494-1.26 2.506-1.394Z"/><path fill="#030A06" d="M65.483 14.825c2.11-.05 4.23-.004 6.341-.007 1.203-.002 2.739-.1 3.906.02.188.02.337.073.48.198.203.177.339.445.346.716.006.245-.144.526-.321.69-.135.126-.296.176-.474.205-.486.078-1.022.032-1.515.032l-2.62-.005v9.72c.003.82.107 2.606-.017 3.303a1.208 1.208 0 0 1-.268.604.849.849 0 0 1-.626.276c-.252.006-.497-.05-.679-.232-.213-.214-.292-.53-.318-.822-.048-.54-.004-1.11.002-1.653.01-.802.002-1.604.002-2.406l.006-8.792c-.871.005-3.886.143-4.504-.137a.797.797 0 0 1-.449-.494.912.912 0 0 1 .079-.745c.148-.268.345-.383.629-.471ZM51.684 19.012c.784-.044 1.55.006 2.31.21.803.215 2.032.689 2.447 1.451.115.21.174.461.094.694-.083.236-.308.417-.534.51-.66.27-1.488-.64-2.11-.874-1.01-.38-2.226-.36-3.21.1-.903.421-1.553 1.22-1.89 2.148-.39 1.077-.423 2.482.073 3.531.46.973 1.305 1.653 2.308 2.007 1.148.406 2.344.19 3.417-.324.332-.18.634-.42 1.012-.499a.7.7 0 0 1 .556.097c.206.142.372.424.399.672.026.233-.065.448-.21.627-.627.778-2.024 1.169-2.975 1.285-1.65.203-3.368-.128-4.688-1.18a5.76 5.76 0 0 1-2.186-3.974 5.973 5.973 0 0 1 1.275-4.352 5.743 5.743 0 0 1 3.912-2.128ZM86.92 16.06c.034 0 .066-.002.099-.003.292-.01.586.069.793.284.493.515.297 2.252.292 2.962.671.005 2.305-.204 2.808.243.183.163.257.388.257.628.001.232-.059.455-.232.619-.47.446-2.169.27-2.834.266.006 1.428-.187 5.828.253 6.912.711 1.751 2.253.21 3.132.625a.85.85 0 0 1 .412.47c.1.278.011.526-.103.78l-.059.065c-.531.553-1.529.686-2.262.697-.85.012-1.655-.132-2.283-.762-.454-.455-.736-1.079-.874-1.7-.213-.959-.125-2.021-.125-3l.003-4.085c-.516 0-1.032-.005-1.548-.013a1.693 1.693 0 0 1-.243-.175c-.204-.184-.297-.458-.304-.727a.778.778 0 0 1 .232-.605c.416-.386 1.333-.248 1.863-.239-.002-.743-.165-2.076.116-2.73.125-.29.328-.395.608-.511Z"/><path fill="#030A06" fill-rule="evenodd" d="M46 15.782c-.889-.087-5.238-.056-6.747-.034-.278.004-.535.023-.761.04a7.487 7.487 0 0 1-.502.027s-.6.14-.795.411c-.128.177-.171.402-.202.614-.16 1.123-.255 2.27-.35 3.413-.049.6-.098 1.201-.157 1.797l-.572 5.776c-.016.154-.042.365-.072.604-.097.774-.231 1.846-.144 2.272a.806.806 0 0 0 .382.555c.206.122.44.19.675.23h.002c.485 0 1.217.007 2.035.016 1.695.017 6.006.039 7.008-.004.2-.01.412-.026.6-.097a.948.948 0 0 0 .562-.534c.1-.257.078-.544-.036-.791a.794.794 0 0 0-.53-.467H37.73c.144-1.275.273-2.553.387-3.831l.103-1.04.01-.103.262.004c.883.013 5.178.044 5.725-.037.201-.03.389-.08.536-.229a.935.935 0 0 0 .253-.723.93.93 0 0 0-.285-.624.78.78 0 0 0-.408-.188c-.511-.074-4.33-.054-5.294-.042-.259.004-.474.006-.612.007l.439-5.182h4.676c.238 0 .486.008.739.016.61.02 1.242.04 1.81-.048a.888.888 0 0 0 .521-.247.955.955 0 0 0 .264-.706.924.924 0 0 0-.857-.855Z" clip-rule="evenodd"/></svg>