<svg aria-hidden="true" style="position: absolute; width: 0; height: 0; overflow: hidden;" version="1.1"
    xmlns="http://www.w3.org/2000/svg" xmlns:xlink="http://www.w3.org/1999/xlink">
    <defs>
        <symbol id="icon-star" viewBox="0 0 32 32">
            <path
                d="M8.688 19.097l-1.987 8.603c-0.062 0.261-0.043 0.533 0.053 0.783s0.265 0.465 0.485 0.617c0.22 0.152 0.481 0.235 0.749 0.236s0.53-0.078 0.752-0.227l7.26-4.84 7.26 4.84c0.227 0.151 0.495 0.228 0.768 0.222s0.537-0.095 0.757-0.256c0.22-0.161 0.386-0.385 0.475-0.642s0.097-0.536 0.023-0.799l-2.439-8.533 6.048-5.443c0.194-0.174 0.332-0.402 0.398-0.654s0.056-0.518-0.027-0.765-0.238-0.464-0.444-0.624c-0.206-0.16-0.454-0.256-0.714-0.277l-7.601-0.605-3.289-7.281c-0.105-0.234-0.275-0.434-0.491-0.573s-0.467-0.214-0.724-0.214c-0.257 0-0.508 0.074-0.724 0.214s-0.386 0.339-0.491 0.573l-3.289 7.281-7.601 0.604c-0.255 0.020-0.5 0.114-0.703 0.269s-0.358 0.366-0.445 0.607c-0.087 0.241-0.103 0.502-0.046 0.752s0.185 0.478 0.369 0.656l5.619 5.476zM12.492 13.329c0.238-0.019 0.467-0.101 0.662-0.239s0.35-0.325 0.448-0.543l2.399-5.308 2.399 5.308c0.098 0.218 0.252 0.405 0.448 0.543s0.424 0.22 0.662 0.239l5.296 0.42-4.361 3.925c-0.379 0.341-0.529 0.867-0.391 1.357l1.671 5.847-4.981-3.321c-0.219-0.147-0.476-0.225-0.739-0.225s-0.521 0.078-0.739 0.225l-5.205 3.471 1.4-6.061c0.051-0.223 0.044-0.455-0.020-0.675s-0.184-0.419-0.348-0.579l-4.051-3.949 5.453-0.435z">
            </path>
        </symbol>
        <symbol id="icon-star-fillled" viewBox="0 0 32 32">
            <path
                d="M8.688 19.097l-1.987 8.603c-0.062 0.261-0.043 0.533 0.053 0.783s0.265 0.465 0.485 0.617c0.22 0.152 0.481 0.235 0.749 0.236s0.53-0.078 0.752-0.227l7.26-4.84 7.26 4.84c0.227 0.151 0.495 0.228 0.768 0.222s0.537-0.095 0.757-0.256c0.22-0.161 0.386-0.385 0.475-0.642s0.097-0.536 0.023-0.799l-2.439-8.533 6.048-5.443c0.194-0.174 0.332-0.402 0.398-0.654s0.056-0.518-0.027-0.765-0.238-0.464-0.444-0.624c-0.206-0.16-0.454-0.256-0.714-0.277l-7.601-0.605-3.289-7.281c-0.105-0.234-0.275-0.434-0.491-0.573s-0.467-0.214-0.724-0.214c-0.257 0-0.508 0.074-0.724 0.214s-0.386 0.339-0.491 0.573l-3.289 7.281-7.601 0.604c-0.255 0.020-0.5 0.114-0.703 0.269s-0.358 0.366-0.445 0.607c-0.087 0.241-0.103 0.502-0.046 0.752s0.185 0.478 0.369 0.656l5.619 5.476z">
            </path>
        </symbol>
        <symbol id="icon-youtube" viewBox="0 0 32 32">
            <path
                d="M28.791 9.604c-0.152-0.563-0.449-1.077-0.861-1.49s-0.925-0.711-1.489-0.864c-2.088-0.573-10.441-0.583-10.441-0.583s-8.352-0.009-10.441 0.539c-0.563 0.16-1.075 0.462-1.487 0.878s-0.711 0.929-0.867 1.493c-0.551 2.088-0.556 6.419-0.556 6.419s-0.005 4.352 0.541 6.419c0.307 1.143 1.207 2.045 2.351 2.353 2.109 0.573 10.44 0.583 10.44 0.583s8.353 0.009 10.441-0.537c0.563-0.153 1.077-0.45 1.49-0.862s0.712-0.925 0.866-1.488c0.552-2.087 0.556-6.416 0.556-6.416s0.027-4.353-0.543-6.441zM13.328 20.007l0.007-8 6.943 4.007-6.949 3.993z">
            </path>
        </symbol>
        <symbol id="icon-linkedIn" viewBox="0 0 32 32">
            <path
                d="M25.75 4h-19.5c-1.237 0-2.25 1.013-2.25 2.25v19.5c0 1.237 1.013 2.25 2.25 2.25h19.5c1.237 0 2.25-1.013 2.25-2.25v-19.5c0-1.237-1.013-2.25-2.25-2.25zM13 23.5h-3v-10.5h3v10.5zM11.5 11.5c-0.829 0-1.5-0.671-1.5-1.5s0.671-1.5 1.5-1.5c0.829 0 1.5 0.671 1.5 1.5s-0.671 1.5-1.5 1.5zM23.5 23.5h-3v-6c0-0.829-0.671-1.5-1.5-1.5s-1.5 0.671-1.5 1.5v6h-3v-10.5h3v1.861c0.619-0.848 1.565-1.861 2.625-1.861 1.866 0 3.375 1.679 3.375 3.75v6.75z">
            </path>
        </symbol>
        <symbol id="icon-instagram" viewBox="0 0 32 32">
            <path stroke-linejoin="miter" stroke-linecap="butt" stroke-miterlimit="4" stroke-width="0.7499"
                d="M16.153 4.375c3.114 0 3.523 0.015 4.777 0.074h0.001c1.238 0.055 2.069 0.254 2.792 0.534 0.741 0.287 1.366 0.672 1.992 1.298h0.001c0.629 0.626 1.009 1.249 1.286 1.997l0.001 0.005c0.279 0.717 0.478 1.553 0.533 2.792 0.056 1.272 0.070 1.673 0.070 4.928s-0.015 3.657-0.070 4.928c-0.055 1.238-0.253 2.069-0.533 2.792-0.287 0.741-0.672 1.366-1.298 1.993s-1.252 1.010-1.993 1.297v0.001c-0.717 0.279-1.553 0.478-2.792 0.533-1.271 0.056-1.673 0.070-4.928 0.070s-3.657-0.015-4.928-0.070c-1.238-0.055-2.069-0.254-2.792-0.534-0.741-0.287-1.366-0.672-1.992-1.298h-0.001c-0.551-0.546-0.911-1.093-1.189-1.723l-0.113-0.276c-0.279-0.717-0.478-1.553-0.533-2.79-0.056-1.272-0.070-1.673-0.070-4.928s0.014-3.656 0.070-4.932c0.055-1.237 0.253-2.068 0.533-2.79 0.292-0.744 0.672-1.368 1.302-1.994l0.001-0.003c0.624-0.629 1.249-1.010 1.996-1.302l0.001 0.001c0.717-0.279 1.553-0.479 2.792-0.534 1.272-0.056 1.673-0.069 4.928-0.069l0.155-0.001zM15.997 5.786c-3.208 0-3.595 0.014-4.863 0.070-1.209 0.054-1.886 0.259-2.345 0.438l-0.003 0.001c-0.604 0.239-1.046 0.524-1.505 0.983-0.454 0.455-0.746 0.902-0.98 1.508-0.179 0.459-0.384 1.132-0.438 2.345-0.057 1.269-0.070 1.66-0.070 4.863s0.014 3.59 0.070 4.863c0.054 1.209 0.26 1.887 0.439 2.346v0.003c0.239 0.603 0.524 1.044 0.983 1.504 0.455 0.455 0.902 0.745 1.508 0.979v0.001c0.459 0.179 1.132 0.384 2.346 0.437 1.269 0.057 1.66 0.070 4.863 0.070s3.589-0.014 4.863-0.070c1.208-0.054 1.886-0.259 2.345-0.437l0.003-0.001c0.603-0.239 1.044-0.524 1.504-0.983 0.455-0.454 0.746-0.901 0.98-1.507 0.156-0.402 0.333-0.967 0.41-1.915l0.027-0.431c0.057-1.269 0.070-1.66 0.070-4.863s-0.014-3.589-0.070-4.863c-0.054-1.209-0.259-1.886-0.438-2.345l-0.001-0.003c-0.239-0.604-0.524-1.046-0.983-1.505-0.454-0.454-0.902-0.746-1.508-0.98h0.001c-0.459-0.179-1.132-0.384-2.346-0.438-1.269-0.057-1.656-0.070-4.863-0.070z">
            </path>
            <path
                d="M15.997 9.836c-3.402 0-6.163 2.76-6.163 6.163s2.76 6.163 6.163 6.163c3.403 0 6.163-2.76 6.163-6.163s-2.76-6.163-6.163-6.163zM15.997 19.997c-2.208 0-3.998-1.79-3.998-3.998s1.79-3.998 3.998-3.998c2.208 0 3.998 1.79 3.998 3.998s-1.79 3.998-3.998 3.998z">
            </path>
            <path
                d="M23.842 9.592c0 0.795-0.644 1.439-1.439 1.439s-1.439-0.644-1.439-1.439 0.644-1.439 1.439-1.439c0.795 0 1.439 0.644 1.439 1.439z">
            </path>
            <symbol id="icon-burger" viewBox="0 0 32 32">
                <path
                    d="M5.333 8h21.333v2.667h-21.333v-2.667zM5.333 14.667h21.333v2.667h-21.333v-2.667zM5.333 21.333h21.333v2.667h-21.333v-2.667z">
                </path>
            </symbol>
            <symbol id="icon-close" viewBox="0 0 32 32">
                <path
                    d="M26.397 0l-11.315 11.312-11.312-11.312-3.771 3.771 11.312 11.312-11.312 11.312 3.771 3.771 11.312-11.312 11.315 11.312 3.771-3.771-11.312-11.312 11.312-11.312-3.771-3.771z">
                </path>
            </symbol>


    </defs>
</svg>