<svg xmlns="http://www.w3.org/2000/svg" aria-hidden="true" style="position:absolute;width:0;height:0;overflow:hidden"><defs><symbol id="icon-star" viewBox="0 0 32 32"><path d="M8.688 19.097 6.701 27.7a1.326 1.326 0 0 0 .538 1.4 1.327 1.327 0 0 0 1.501.009l7.26-4.84 7.26 4.84a1.333 1.333 0 0 0 1.525-.034 1.34 1.34 0 0 0 .498-1.441l-2.439-8.533 6.048-5.443a1.332 1.332 0 0 0-.073-2.043 1.339 1.339 0 0 0-.714-.277l-7.601-.605-3.289-7.281A1.327 1.327 0 0 0 16 2.665a1.33 1.33 0 0 0-1.215.787l-3.289 7.281-7.601.604a1.333 1.333 0 0 0-.825 2.284l5.619 5.476zm3.804-5.768a1.329 1.329 0 0 0 1.11-.782l2.399-5.308 2.399 5.308a1.33 1.33 0 0 0 1.11.782l5.296.42-4.361 3.925a1.336 1.336 0 0 0-.391 1.357l1.671 5.847-4.981-3.321a1.325 1.325 0 0 0-1.478 0l-5.205 3.471 1.4-6.061a1.343 1.343 0 0 0-.368-1.254l-4.051-3.949 5.453-.435z"/></symbol><symbol id="icon-star-fillled" viewBox="0 0 32 32"><path d="M8.688 19.097 6.701 27.7a1.326 1.326 0 0 0 .538 1.4 1.327 1.327 0 0 0 1.501.009l7.26-4.84 7.26 4.84a1.333 1.333 0 0 0 1.525-.034 1.34 1.34 0 0 0 .498-1.441l-2.439-8.533 6.048-5.443a1.332 1.332 0 0 0-.073-2.043 1.339 1.339 0 0 0-.714-.277l-7.601-.605-3.289-7.281A1.327 1.327 0 0 0 16 2.665a1.33 1.33 0 0 0-1.215.787l-3.289 7.281-7.601.604a1.333 1.333 0 0 0-.825 2.284l5.619 5.476z"/></symbol><symbol id="icon-youtube" viewBox="0 0 32 32"><path d="M28.791 9.604a3.345 3.345 0 0 0-2.35-2.354C24.353 6.677 16 6.667 16 6.667s-8.352-.009-10.441.539a3.416 3.416 0 0 0-2.354 2.371c-.551 2.088-.556 6.419-.556 6.419s-.005 4.352.541 6.419a3.341 3.341 0 0 0 2.351 2.353c2.109.573 10.44.583 10.44.583s8.353.009 10.441-.537a3.356 3.356 0 0 0 2.356-2.35c.552-2.087.556-6.416.556-6.416s.027-4.353-.543-6.441zM13.328 20.007l.007-8 6.943 4.007-6.949 3.993z"/></symbol><symbol id="icon-linkedIn" viewBox="0 0 32 32"><path d="M25.75 4H6.25A2.257 2.257 0 0 0 4 6.25v19.5A2.257 2.257 0 0 0 6.25 28h19.5A2.257 2.257 0 0 0 28 25.75V6.25A2.257 2.257 0 0 0 25.75 4zM13 23.5h-3V13h3v10.5zm-1.5-12a1.5 1.5 0 1 1-.001-2.999A1.5 1.5 0 0 1 11.5 11.5zm12 12h-3v-6a1.5 1.5 0 1 0-3 0v6h-3V13h3v1.861c.619-.848 1.565-1.861 2.625-1.861 1.866 0 3.375 1.679 3.375 3.75v6.75z"/></symbol><symbol id="icon-instagram" viewBox="0 0 32 32"><path stroke-width=".75" d="M16.153 4.375c3.114 0 3.523.015 4.777.074h.001c1.238.055 2.069.254 2.792.534a5.494 5.494 0 0 1 1.992 1.298h.001a5.259 5.259 0 0 1 1.286 1.997l.001.005c.279.717.478 1.553.533 2.792.056 1.272.07 1.673.07 4.928s-.015 3.657-.07 4.928c-.055 1.238-.253 2.069-.533 2.792-.287.741-.672 1.366-1.298 1.993s-1.252 1.01-1.993 1.297v.001c-.717.279-1.553.478-2.792.533-1.271.056-1.673.07-4.928.07s-3.657-.015-4.928-.07c-1.238-.055-2.069-.254-2.792-.534a5.494 5.494 0 0 1-1.992-1.298h-.001a5.409 5.409 0 0 1-1.189-1.723l-.113-.276c-.279-.717-.478-1.553-.533-2.79-.056-1.272-.07-1.673-.07-4.928s.014-3.656.07-4.932c.055-1.237.253-2.068.533-2.79a5.5 5.5 0 0 1 1.302-1.994l.001-.003a5.48 5.48 0 0 1 1.996-1.302l.001.001c.717-.279 1.553-.479 2.792-.534 1.272-.056 1.673-.069 4.928-.069l.155-.001zm-.156 1.411c-3.208 0-3.595.014-4.863.07-1.209.054-1.886.259-2.345.438l-.003.001a4.137 4.137 0 0 0-1.505.983 4.092 4.092 0 0 0-.98 1.508c-.179.459-.384 1.132-.438 2.345-.057 1.269-.07 1.66-.07 4.863s.014 3.59.07 4.863c.054 1.209.26 1.887.439 2.346v.003a4.15 4.15 0 0 0 .983 1.504c.455.455.902.745 1.508.979v.001c.459.179 1.132.384 2.346.437 1.269.057 1.66.07 4.863.07s3.589-.014 4.863-.07c1.208-.054 1.886-.259 2.345-.437l.003-.001a4.15 4.15 0 0 0 1.504-.983c.455-.454.746-.901.98-1.507.156-.402.333-.967.41-1.915l.027-.431c.057-1.269.07-1.66.07-4.863s-.014-3.589-.07-4.863c-.054-1.209-.259-1.886-.438-2.345l-.001-.003a4.137 4.137 0 0 0-.983-1.505 4.084 4.084 0 0 0-1.508-.98h.001c-.459-.179-1.132-.384-2.346-.438-1.269-.057-1.656-.07-4.863-.07z"/><path d="M15.997 9.836a6.164 6.164 0 1 0 6.163 6.163 6.164 6.164 0 0 0-6.163-6.163zm0 10.161a3.998 3.998 0 1 1 0-7.996 3.998 3.998 0 0 1 0 7.996zM23.842 9.592a1.439 1.439 0 1 1-2.877 0 1.439 1.439 0 0 1 2.877 0z"/></symbol><symbol id="icon-burger" viewBox="0 0 32 32"><path d="M5.333 8h21.333v2.667H5.333V8zm0 6.667h21.333v2.667H5.333v-2.667zm0 6.666h21.333V24H5.333v-2.667z"/></symbol><symbol id="icon-close" viewBox="0 0 32 32"><path d="M26.397 0 15.082 11.312 3.77 0-.001 3.771l11.312 11.312L-.001 26.395l3.771 3.771 11.312-11.312 11.315 11.312 3.771-3.771-11.312-11.312L30.168 3.771 26.397 0z"/></symbol></defs></svg>